<?xml version="1.0" encoding="utf-8"?>
<!-- Generator: Adobe Illustrator 24.0.1, SVG Export Plug-In . SVG Version: 6.00 Build 0)  -->
<svg version="1.1" id="Layer_1" xmlns="http://www.w3.org/2000/svg" xmlns:xlink="http://www.w3.org/1999/xlink" x="0px" y="0px"
	 viewBox="0 0 800 800" style="enable-background:new 0 0 800 800;" xml:space="preserve">
<style type="text/css">
	.st0{fill:#E8EDEE;}
	.st1{fill:#CBD4D8;}
	.st2{fill:#F0CE49;}
	.st3{fill:#E39600;}
</style>
<path class="st0" d="M289.7,579.3v165.5h220.7V634.5v-55.2H289.7z"/>
<path class="st1" d="M420.7,800h-41.4c-12.4,0-24.8-5.5-33.1-16.6l-29-38.6h165.5l-29,38.6C445.5,794.5,433.1,800,420.7,800"/>
<path class="st2" d="M660.7,238.6C646.9,114.5,547.6,15.2,423.4,1.4C415.2,1.4,408.3,0,400,0s-15.2,0-23.4,1.4
	C252.4,15.2,153.1,115.9,139.3,238.6c-9.7,88.3,23.4,168.3,81.4,223.4c33.1,31.7,60.7,73.1,69,117.2h220.7
	c8.3-44.1,35.9-85.5,69-117.2C637.2,406.9,670.3,326.9,660.7,238.6"/>
<path class="st3" d="M308.2,330.6H391l-69,124.1h82.8l96.6-179.3h-69l69-179.3L308.2,330.6z"/>
<g>
	<path class="st1" d="M386.2,648.3c8.3,0,13.8-5.5,13.8-13.8c0-8.3-5.5-13.8-13.8-13.8h-96.6v27.6L386.2,648.3L386.2,648.3z"/>
	<path class="st1" d="M344.8,703.4c8.3,0,13.8-5.5,13.8-13.8s-5.5-13.8-13.8-13.8h-55.2v27.6L344.8,703.4L344.8,703.4z"/>
	<path class="st1" d="M510.3,620.7h-55.2c-8.3,0-13.8,5.5-13.8,13.8c0,8.3,5.5,13.8,13.8,13.8h55.2v-13.8V620.7z"/>
	<path class="st1" d="M413.8,675.9c-8.3,0-13.8,5.5-13.8,13.8s5.5,13.8,13.8,13.8h96.6v-27.6L413.8,675.9L413.8,675.9z"/>
</g>
<path class="st3" d="M130.7,113.8c-11.6-7.5-23.1-15-34.7-22.5c-5.4-3.5-10.4,5.1-5,8.6c11.6,7.5,23.1,15,34.7,22.5
	C131.1,125.9,136.1,117.3,130.7,113.8z"/>
<path class="st3" d="M105.7,249.4c-13.8,0-27.6,0-41.3,0.1c-6.5,0-6,10,0.5,10c13.8,0,27.6,0,41.3-0.1
	C112.7,259.4,112.2,249.4,105.7,249.4z"/>
<path class="st3" d="M118.4,386.2c-12.3,6.3-24.5,12.5-36.8,18.8c-5.7,2.9-0.8,11.6,5,8.7c12.3-6.3,24.5-12.5,36.8-18.8
	C129.1,392,124.1,383.3,118.4,386.2z"/>
<path class="st3" d="M735.1,254.4c-13.8,0-27.6,0-41.3,0.1c-6.5,0-6,10,0.5,10c13.8,0,27.6,0,41.3-0.1
	C742.1,264.4,741.5,254.4,735.1,254.4z"/>
<path class="st3" d="M709.1,427.4c-11.6-7.5-23.1-15-34.7-22.5c-5.4-3.5-10.4,5.1-5,8.6c11.6,7.5,23.1,15,34.7,22.5
	C709.4,439.6,714.5,430.9,709.1,427.4z"/>
<path class="st3" d="M701.7,96.7c-12.3,6.3-24.5,12.5-36.8,18.8c-5.7,2.9-0.8,11.6,5,8.7c12.3-6.3,24.5-12.5,36.8-18.8
	C712.4,102.5,707.4,93.8,701.7,96.7z"/>
</svg>
